<?xml version="1.0" encoding="UTF-8" standalone="no"?>
<!DOCTYPE svg PUBLIC "-//W3C//DTD SVG 1.1//EN"
 "http://www.w3.org/Graphics/SVG/1.1/DTD/svg11.dtd">
<!-- Generated by graphviz version 12.1.1 (20240910.0053)
 -->
<!-- Title: INFRA Pages: 1 -->
<svg width="1304pt" height="512pt"
 viewBox="0.00 0.00 1304.14 512.00" xmlns="http://www.w3.org/2000/svg" xmlns:xlink="http://www.w3.org/1999/xlink">
<g id="graph0" class="graph" transform="scale(1 1) rotate(0) translate(4 508)">
<title>INFRA</title>
<polygon fill="white" stroke="none" points="-4,4 -4,-508 1300.14,-508 1300.14,4 -4,4"/>
<!-- ECS Service -->
<g id="node1" class="node">
<title>ECS Service</title>
<path fill="#b7e0ff" stroke="black" stroke-width="2" d="M525.07,-396C525.07,-396 400.83,-396 400.83,-396 394.83,-396 388.83,-390 388.83,-384 388.83,-384 388.83,-336 388.83,-336 388.83,-330 394.83,-324 400.83,-324 400.83,-324 525.07,-324 525.07,-324 531.07,-324 537.07,-330 537.07,-336 537.07,-336 537.07,-384 537.07,-384 537.07,-390 531.07,-396 525.07,-396"/>
<text text-anchor="middle" x="462.95" y="-364.2" font-family="Arial" font-size="14.00">ECS Service</text>
<text text-anchor="middle" x="462.95" y="-347.4" font-family="Arial" font-size="14.00">(AWS::ECS::Service)</text>
</g>
<!-- ECS Cluster -->
<g id="node2" class="node">
<title>ECS Cluster</title>
<path fill="#b7e0ff" stroke="black" stroke-width="2" d="M133.9,-288C133.9,-288 12,-288 12,-288 6,-288 0,-282 0,-276 0,-276 0,-228 0,-228 0,-222 6,-216 12,-216 12,-216 133.9,-216 133.9,-216 139.9,-216 145.9,-222 145.9,-228 145.9,-228 145.9,-276 145.9,-276 145.9,-282 139.9,-288 133.9,-288"/>
<text text-anchor="middle" x="72.95" y="-256.2" font-family="Arial" font-size="14.00">ECS Cluster</text>
<text text-anchor="middle" x="72.95" y="-239.4" font-family="Arial" font-size="14.00">(AWS::ECS::Cluster)</text>
</g>
<!-- ECS Service&#45;&gt;ECS Cluster -->
<g id="edge1" class="edge">
<title>ECS Service&#45;&gt;ECS Cluster</title>
<path fill="none" stroke="black" d="M388.52,-345.68C328.09,-333.99 240.74,-315.13 156.78,-288.42"/>
<polygon fill="black" stroke="black" points="158.06,-285.15 147.46,-285.41 155.91,-291.81 158.06,-285.15"/>
</g>
<!-- IAM Role -->
<g id="node3" class="node">
<title>IAM Role</title>
<path fill="#e6e6e6" stroke="black" stroke-width="2" d="M278.18,-288C278.18,-288 175.72,-288 175.72,-288 169.72,-288 163.72,-282 163.72,-276 163.72,-276 163.72,-228 163.72,-228 163.72,-222 169.72,-216 175.72,-216 175.72,-216 278.18,-216 278.18,-216 284.18,-216 290.18,-222 290.18,-228 290.18,-228 290.18,-276 290.18,-276 290.18,-282 284.18,-288 278.18,-288"/>
<text text-anchor="middle" x="226.95" y="-256.2" font-family="Arial" font-size="14.00">IAM Role</text>
<text text-anchor="middle" x="226.95" y="-239.4" font-family="Arial" font-size="14.00">(AWS::IAM::Role)</text>
</g>
<!-- ECS Service&#45;&gt;IAM Role -->
<g id="edge2" class="edge">
<title>ECS Service&#45;&gt;IAM Role</title>
<path fill="none" stroke="black" d="M388.35,-327.52C362.85,-316.57 334,-303.96 300.89,-288.84"/>
<polygon fill="black" stroke="black" points="302.41,-285.69 291.86,-284.7 299.49,-292.05 302.41,-285.69"/>
</g>
<!-- Application Load Balancer -->
<g id="node4" class="node">
<title>Application Load Balancer</title>
<path fill="#e78f81" stroke="black" stroke-width="2" d="M606.03,-288C606.03,-288 319.87,-288 319.87,-288 313.87,-288 307.87,-282 307.87,-276 307.87,-276 307.87,-228 307.87,-228 307.87,-222 313.87,-216 319.87,-216 319.87,-216 606.03,-216 606.03,-216 612.03,-216 618.03,-222 618.03,-228 618.03,-228 618.03,-276 618.03,-276 618.03,-282 612.03,-288 606.03,-288"/>
<text text-anchor="middle" x="462.95" y="-256.2" font-family="Arial" font-size="14.00">Application Load Balancer</text>
<text text-anchor="middle" x="462.95" y="-239.4" font-family="Arial" font-size="14.00">(AWS::ElasticLoadBalancingV2::LoadBalancer)</text>
</g>
<!-- ECS Service&#45;&gt;Application Load Balancer -->
<g id="edge3" class="edge">
<title>ECS Service&#45;&gt;Application Load Balancer</title>
<path fill="none" stroke="black" d="M462.95,-323.7C462.95,-315.93 462.95,-307.57 462.95,-299.43"/>
<polygon fill="black" stroke="black" points="466.45,-299.66 462.95,-289.66 459.45,-299.66 466.45,-299.66"/>
</g>
<!-- VPC -->
<g id="node5" class="node">
<title>VPC</title>
<path fill="#e6e6e6" stroke="black" stroke-width="2" d="M631.35,-72C631.35,-72 526.56,-72 526.56,-72 520.56,-72 514.56,-66 514.56,-60 514.56,-60 514.56,-12 514.56,-12 514.56,-6 520.56,0 526.56,0 526.56,0 631.35,0 631.35,0 637.35,0 643.35,-6 643.35,-12 643.35,-12 643.35,-60 643.35,-60 643.35,-66 637.35,-72 631.35,-72"/>
<text text-anchor="middle" x="578.95" y="-40.2" font-family="Arial" font-size="14.00">VPC</text>
<text text-anchor="middle" x="578.95" y="-23.4" font-family="Arial" font-size="14.00">(AWS::EC2::VPC)</text>
</g>
<!-- ECS Service&#45;&gt;VPC -->
<g id="edge4" class="edge">
<title>ECS Service&#45;&gt;VPC</title>
<path fill="none" stroke="black" d="M537.49,-348.48C575.78,-339.1 619.78,-321.39 645.95,-288 695.45,-224.85 693.08,-181.09 659.95,-108 655.32,-97.78 648.41,-88.45 640.54,-80.16"/>
<polygon fill="black" stroke="black" points="643.09,-77.75 633.49,-73.27 638.2,-82.76 643.09,-77.75"/>
</g>
<!-- Private Subnets -->
<g id="node6" class="node">
<title>Private Subnets</title>
<path fill="#e6e6e6" stroke="black" stroke-width="2" d="M639.14,-180C639.14,-180 518.76,-180 518.76,-180 512.76,-180 506.76,-174 506.76,-168 506.76,-168 506.76,-120 506.76,-120 506.76,-114 512.76,-108 518.76,-108 518.76,-108 639.14,-108 639.14,-108 645.14,-108 651.14,-114 651.14,-120 651.14,-120 651.14,-168 651.14,-168 651.14,-174 645.14,-180 639.14,-180"/>
<text text-anchor="middle" x="578.95" y="-148.2" font-family="Arial" font-size="14.00">Private Subnets</text>
<text text-anchor="middle" x="578.95" y="-131.4" font-family="Arial" font-size="14.00">(AWS::EC2::Subnet)</text>
</g>
<!-- ECS Service&#45;&gt;Private Subnets -->
<g id="edge5" class="edge">
<title>ECS Service&#45;&gt;Private Subnets</title>
<path fill="none" stroke="black" d="M537.45,-345.9C570.75,-335.93 606.94,-318.47 626.95,-288 646.52,-258.21 631.71,-219.67 613.55,-190.11"/>
<polygon fill="black" stroke="black" points="616.49,-188.22 608.13,-181.72 610.62,-192.02 616.49,-188.22"/>
</g>
<!-- Application Load Balancer&#45;&gt;VPC -->
<g id="edge6" class="edge">
<title>Application Load Balancer&#45;&gt;VPC</title>
<path fill="none" stroke="black" d="M465.64,-215.52C469.29,-185.11 477.86,-141.1 497.95,-108 504.06,-97.95 512.05,-88.55 520.64,-80.09"/>
<polygon fill="black" stroke="black" points="522.98,-82.69 527.9,-73.3 518.2,-77.57 522.98,-82.69"/>
</g>
<!-- Application Load Balancer&#45;&gt;Private Subnets -->
<g id="edge7" class="edge">
<title>Application Load Balancer&#45;&gt;Private Subnets</title>
<path fill="none" stroke="black" d="M501.58,-215.7C511.36,-206.76 521.98,-197.06 532.12,-187.8"/>
<polygon fill="black" stroke="black" points="534.36,-190.49 539.38,-181.16 529.63,-185.33 534.36,-190.49"/>
</g>
<!-- Private Subnets&#45;&gt;VPC -->
<g id="edge8" class="edge">
<title>Private Subnets&#45;&gt;VPC</title>
<path fill="none" stroke="black" d="M578.95,-107.7C578.95,-99.93 578.95,-91.57 578.95,-83.43"/>
<polygon fill="black" stroke="black" points="582.45,-83.66 578.95,-73.66 575.45,-83.66 582.45,-83.66"/>
</g>
<!-- Auto Scaling Policy -->
<g id="node7" class="node">
<title>Auto Scaling Policy</title>
<path fill="#e6e6e6" stroke="black" stroke-width="2" d="M600.57,-504C600.57,-504 325.33,-504 325.33,-504 319.33,-504 313.33,-498 313.33,-492 313.33,-492 313.33,-444 313.33,-444 313.33,-438 319.33,-432 325.33,-432 325.33,-432 600.57,-432 600.57,-432 606.57,-432 612.57,-438 612.57,-444 612.57,-444 612.57,-492 612.57,-492 612.57,-498 606.57,-504 600.57,-504"/>
<text text-anchor="middle" x="462.95" y="-472.2" font-family="Arial" font-size="14.00">Auto Scaling Policy</text>
<text text-anchor="middle" x="462.95" y="-455.4" font-family="Arial" font-size="14.00">(AWS::ApplicationAutoScaling::ScalingPolicy)</text>
</g>
<!-- Auto Scaling Policy&#45;&gt;ECS Service -->
<g id="edge9" class="edge">
<title>Auto Scaling Policy&#45;&gt;ECS Service</title>
<path fill="none" stroke="black" d="M462.95,-431.7C462.95,-423.93 462.95,-415.57 462.95,-407.43"/>
<polygon fill="black" stroke="black" points="466.45,-407.66 462.95,-397.66 459.45,-407.66 466.45,-407.66"/>
</g>
<!-- ECR Repository -->
<g id="node8" class="node">
<title>ECR Repository</title>
<path fill="#fff5cd" stroke="black" stroke-width="2" d="M799.58,-497.45C799.58,-501.07 761.65,-504 714.95,-504 668.26,-504 630.33,-501.07 630.33,-497.45 630.33,-497.45 630.33,-438.55 630.33,-438.55 630.33,-434.93 668.26,-432 714.95,-432 761.65,-432 799.58,-434.93 799.58,-438.55 799.58,-438.55 799.58,-497.45 799.58,-497.45"/>
<path fill="none" stroke="black" stroke-width="2" d="M799.58,-497.45C799.58,-493.84 761.65,-490.91 714.95,-490.91 668.26,-490.91 630.33,-493.84 630.33,-497.45"/>
<text text-anchor="middle" x="714.95" y="-472.2" font-family="Arial" font-size="14.00">ECR Repository</text>
<text text-anchor="middle" x="714.95" y="-455.4" font-family="Arial" font-size="14.00">(AWS::ECR::Repository)</text>
</g>
<!-- CloudWatch Logs -->
<g id="node9" class="node">
<title>CloudWatch Logs</title>
<path fill="#e6e6e6" stroke="black" stroke-width="2" d="M970.65,-504C970.65,-504 829.25,-504 829.25,-504 823.25,-504 817.25,-498 817.25,-492 817.25,-492 817.25,-444 817.25,-444 817.25,-438 823.25,-432 829.25,-432 829.25,-432 970.65,-432 970.65,-432 976.65,-432 982.65,-438 982.65,-444 982.65,-444 982.65,-492 982.65,-492 982.65,-498 976.65,-504 970.65,-504"/>
<text text-anchor="middle" x="899.95" y="-472.2" font-family="Arial" font-size="14.00">CloudWatch Logs</text>
<text text-anchor="middle" x="899.95" y="-455.4" font-family="Arial" font-size="14.00">(AWS::Logs::LogGroup)</text>
</g>
<!-- S3 Bucket -->
<g id="node10" class="node">
<title>S3 Bucket</title>
<path fill="#fff5cd" stroke="black" stroke-width="2" d="M1133.3,-497.45C1133.3,-501.07 1103.56,-504 1066.95,-504 1030.34,-504 1000.6,-501.07 1000.6,-497.45 1000.6,-497.45 1000.6,-438.55 1000.6,-438.55 1000.6,-434.93 1030.34,-432 1066.95,-432 1103.56,-432 1133.3,-434.93 1133.3,-438.55 1133.3,-438.55 1133.3,-497.45 1133.3,-497.45"/>
<path fill="none" stroke="black" stroke-width="2" d="M1133.3,-497.45C1133.3,-493.84 1103.56,-490.91 1066.95,-490.91 1030.34,-490.91 1000.6,-493.84 1000.6,-497.45"/>
<text text-anchor="middle" x="1066.95" y="-472.2" font-family="Arial" font-size="14.00">S3 Bucket</text>
<text text-anchor="middle" x="1066.95" y="-455.4" font-family="Arial" font-size="14.00">(AWS::S3::Bucket)</text>
</g>
<!-- SQS Queue -->
<g id="node11" class="node">
<title>SQS Queue</title>
<path fill="#cce0ac" stroke="black" stroke-width="2" d="M1284.14,-504C1284.14,-504 1163.77,-504 1163.77,-504 1157.77,-504 1151.77,-498 1151.77,-492 1151.77,-492 1151.77,-444 1151.77,-444 1151.77,-438 1157.77,-432 1163.77,-432 1163.77,-432 1284.14,-432 1284.14,-432 1290.14,-432 1296.14,-438 1296.14,-444 1296.14,-444 1296.14,-492 1296.14,-492 1296.14,-498 1290.14,-504 1284.14,-504"/>
<text text-anchor="middle" x="1223.95" y="-472.2" font-family="Arial" font-size="14.00">SQS Queue</text>
<text text-anchor="middle" x="1223.95" y="-455.4" font-family="Arial" font-size="14.00">(AWS::SQS::Queue)</text>
</g>
</g>
</svg>
